<svg id="Layer_1" height="512" viewBox="0 0 128 128" width="512" xmlns="http://www.w3.org/2000/svg" xmlns:xlink="http://www.w3.org/1999/xlink" data-name="Layer 1"><linearGradient id="linear-gradient" gradientUnits="userSpaceOnUse" x1="105.824" x2="38.013" y1="89.518" y2="21.707"><stop offset="0" stop-color="#1a91e9"/><stop offset="1" stop-color="#ff3980"/></linearGradient><path d="m46.458 38.3a1.75 1.75 0 0 1 0 3.5h-.833a1.75 1.75 0 0 1 0-3.5zm64.436 24.92a1.75 1.75 0 0 1 -.194 2.136l-5.042 5.412a1.75 1.75 0 1 1 -2.56-2.386l2.3-2.468h-25.553l-12.776 41.139 10.207-10.953a1.75 1.75 0 0 1 2.561 2.386l-15.432 16.56a1.747 1.747 0 0 1 -2.56 0l-46.295-49.69a1.75 1.75 0 0 1 -.194-2.136l5.074-7.927a8.388 8.388 0 0 0 -7.159-4.034 1.75 1.75 0 0 1 0-3.5 8.4 8.4 0 0 0 8.393-8.393 1.75 1.75 0 0 1 3.5 0 8.35 8.35 0 0 0 1.992 5.416l3.632-5.676a1.751 1.751 0 0 1 1.474-.807h7.238a1.75 1.75 0 0 1 0 3.5h-4.041l12.234 19.118 12.235-19.117h-6.136a1.75 1.75 0 0 1 0-3.5h40.2a1.751 1.751 0 0 1 1.474.807zm-60-.806h24.465l-12.234-19.114zm-31.415-12.9a11.984 11.984 0 0 1 3.938 3.938 11.977 11.977 0 0 1 3.939-3.938c-.258-.159-.5-.342-.743-.518-.017-.011-.037-.014-.054-.025a1.8 1.8 0 0 1 -.144-.114 11.961 11.961 0 0 1 -3-3.282 11.977 11.977 0 0 1 -3.939 3.934zm-.44 14.455 40.145 43.089-11.322-36.451a1.75 1.75 0 0 1 3.338-1.038l11.921 38.385 13.056-42.04h-48.677a1.75 1.75 0 1 1 0-3.5h17l-12.238-19.114-2.324 3.631a8.32 8.32 0 0 0 3.619.832 1.75 1.75 0 0 1 0 3.5 8.4 8.4 0 0 0 -8.393 8.392 1.745 1.745 0 0 1 -3.482.178zm72.461-16.779-9.746 15.224h24.468l-13.192-20.614h-26.708l12.235 19.117 9.992-15.617a1.75 1.75 0 1 1 2.951 1.89zm9.616 28.457.64-.686a1.75 1.75 0 0 0 -2.561-2.386l-.639.687a1.749 1.749 0 1 0 2.56 2.385zm-37.991-46.933a1.749 1.749 0 0 0 1.75-1.75v-12.818a1.75 1.75 0 0 0 -3.5 0v12.818a1.749 1.749 0 0 0 1.75 1.75zm-13.66 2.142a1.749 1.749 0 0 0 2.474-2.474l-9.063-9.064a1.75 1.75 0 1 0 -2.476 2.474zm26.083.513a1.743 1.743 0 0 0 1.237-.513l9.064-9.064a1.75 1.75 0 1 0 -2.475-2.474l-9.063 9.064a1.75 1.75 0 0 0 1.237 2.987zm28.662 59.038a1.749 1.749 0 0 1 -1.75 1.75 11.72 11.72 0 0 0 -11.706 11.706 1.75 1.75 0 0 1 -3.5 0 11.72 11.72 0 0 0 -11.706-11.706 1.75 1.75 0 0 1 0-3.5 11.719 11.719 0 0 0 11.706-11.7 1.75 1.75 0 0 1 3.5 0 11.62 11.62 0 0 0 .695 3.934l3.24-3.479a1.75 1.75 0 0 1 2.561 2.386l-4.027 4.323a11.681 11.681 0 0 0 9.237 4.541 1.75 1.75 0 0 1 1.75 1.745zm-8.828 0a15.3 15.3 0 0 1 -5.822-5.415 1.744 1.744 0 0 1 -.188-.326c-.125-.211-.253-.419-.368-.637a15.3 15.3 0 0 1 -6.378 6.378 15.315 15.315 0 0 1 6.374 6.378 15.309 15.309 0 0 1 6.382-6.378zm19.327-60.788a1.75 1.75 0 0 1 -1.75 1.75 6.57 6.57 0 0 0 -6.563 6.564 1.75 1.75 0 1 1 -3.5 0 6.572 6.572 0 0 0 -6.565-6.564 1.75 1.75 0 0 1 0-3.5 6.572 6.572 0 0 0 6.565-6.564 1.75 1.75 0 1 1 3.5 0 6.57 6.57 0 0 0 6.563 6.564 1.75 1.75 0 0 1 1.75 1.75zm-7.415 0a10.119 10.119 0 0 1 -2.648-2.648 10.138 10.138 0 0 1 -2.646 2.648 10.142 10.142 0 0 1 2.649 2.649 10.123 10.123 0 0 1 2.645-2.649z" fill="url(#linear-gradient)"/></svg>