<?xml version="1.0" encoding="iso-8859-1"?>
<!-- Generator: Adobe Illustrator 21.0.0, SVG Export Plug-In . SVG Version: 6.00 Build 0)  -->
<svg version="1.1" id="Capa_1" xmlns="http://www.w3.org/2000/svg" xmlns:xlink="http://www.w3.org/1999/xlink" x="0px" y="0px"
	 viewBox="0 0 512 512" style="enable-background:new 0 0 512 512;" xml:space="preserve">
<linearGradient id="SVGID_1_" gradientUnits="userSpaceOnUse" x1="262.3986" y1="468.9694" x2="259.6886" y2="389.5134" gradientTransform="matrix(1.0039 0 0 -1.0039 0.1922 516.5617)">
	<stop  offset="0" style="stop-color:#FFB92D"/>
	<stop  offset="1" style="stop-color:#F59500"/>
</linearGradient>
<path style="fill:url(#SVGID_1_);" d="M451.284,469.456H60.716c-20.816,0-37.691-16.875-37.691-37.691v-325.22
	c0-20.816,16.875-37.691,37.691-37.691h390.568c20.816,0,37.691,16.875,37.691,37.691v325.22
	C488.975,452.581,472.1,469.456,451.284,469.456z"/>
<linearGradient id="SVGID_2_" gradientUnits="userSpaceOnUse" x1="275.3918" y1="416.213" x2="268.0119" y2="355.343" gradientTransform="matrix(1.0039 0 0 -1.0039 0.1922 516.5617)">
	<stop  offset="0" style="stop-color:#FFB92D"/>
	<stop  offset="1" style="stop-color:#F59500"/>
</linearGradient>
<path style="fill:url(#SVGID_2_);" d="M442.574,460.522H69.426c-19.888,0-36.011-16.123-36.011-36.011V113.797
	c0-19.888,16.122-36.011,36.011-36.011h373.147c19.888,0,36.011,16.122,36.011,36.011v310.715
	C478.585,444.4,462.462,460.522,442.574,460.522z"/>
<linearGradient id="SVGID_3_" gradientUnits="userSpaceOnUse" x1="251.9903" y1="414.4134" x2="251.9903" y2="368.0434" gradientTransform="matrix(1.0039 0 0 -1.0039 0.1922 516.5617)">
	<stop  offset="0" style="stop-color:#A7F3CE"/>
	<stop  offset="1" style="stop-color:#61DB99"/>
</linearGradient>
<path style="fill:url(#SVGID_3_);" d="M463.721,174.051L369.776,11.335c-6.257-10.839-20.118-14.553-30.957-8.294L42.621,174.051
	H463.721z"/>
<linearGradient id="SVGID_4_" gradientUnits="userSpaceOnUse" x1="254.8088" y1="334.1434" x2="254.8088" y2="204.0234" gradientTransform="matrix(1.0039 0 0 -1.0039 0.1922 516.5617)">
	<stop  offset="0" style="stop-color:#FF4C54"/>
	<stop  offset="1" style="stop-color:#BE3F45"/>
</linearGradient>
<path style="fill:url(#SVGID_4_);" d="M23.025,305.009h465.95V181.597c0-15.577-12.627-28.204-28.204-28.204H51.229
	c-15.577,0-28.204,12.627-28.204,28.204V305.009z"/>
<linearGradient id="SVGID_5_" gradientUnits="userSpaceOnUse" x1="254.8088" y1="237.5234" x2="254.8088" y2="36.5634" gradientTransform="matrix(1.0039 0 0 -1.0039 0.1922 516.5617)">
	<stop  offset="0" style="stop-color:#FF4C54"/>
	<stop  offset="1" style="stop-color:#BE3F45"/>
</linearGradient>
<path style="fill:url(#SVGID_5_);" d="M23.025,258.595v173.17c0,20.816,16.875,37.692,37.692,37.692h390.567
	c20.816,0,37.691-16.875,37.691-37.691V258.595c0-12.857-10.423-23.28-23.28-23.28H46.305
	C33.448,235.315,23.025,245.737,23.025,258.595z"/>
<linearGradient id="SVGID_6_" gradientUnits="userSpaceOnUse" x1="460.4788" y1="196.4244" x2="426.6188" y2="196.4244" gradientTransform="matrix(1.0039 0 0 -1.0039 0.1922 516.5617)">
	<stop  offset="0" style="stop-color:#BE3F45;stop-opacity:0"/>
	<stop  offset="1" style="stop-color:#BE3F45"/>
</linearGradient>
<path style="fill:url(#SVGID_6_);" d="M418.679,169.277v300.181h32.605c20.816,0,37.691-16.875,37.691-37.691V239.573
	L418.679,169.277z"/>
<linearGradient id="SVGID_7_" gradientUnits="userSpaceOnUse" x1="157.6529" y1="231.1851" x2="329.9029" y2="151.7291" gradientTransform="matrix(1.0039 0 0 -1.0039 0.1922 516.5617)">
	<stop  offset="0" style="stop-color:#FFB92D"/>
	<stop  offset="1" style="stop-color:#F59500"/>
</linearGradient>
<path style="fill:url(#SVGID_7_);" d="M386.897,511.717L59.81,473.729c-20.968-2.436-36.785-20.195-36.785-41.304v-328.69
	c0,7.064,5.293,13.006,12.308,13.821l361.157,41.946c20.968,2.436,36.785,20.195,36.785,41.304v269.608
	C433.275,495.279,411.596,514.587,386.897,511.717z"/>
<linearGradient id="SVGID_8_" gradientUnits="userSpaceOnUse" x1="221.5805" y1="54.2732" x2="214.4605" y2="-0.1468" gradientTransform="matrix(1.0039 0 0 -1.0039 0.1922 516.5617)">
	<stop  offset="0" style="stop-color:#BE3F45;stop-opacity:0"/>
	<stop  offset="1" style="stop-color:#BE3F45"/>
</linearGradient>
<path style="fill:url(#SVGID_8_);" d="M386.897,446.063L59.81,408.075c-20.968-2.436-36.785-20.195-36.785-41.304v65.654
	c0,21.109,15.817,38.869,36.785,41.304l327.087,37.988c24.699,2.869,46.379-16.438,46.379-41.304v-65.654
	C433.275,429.625,411.596,448.931,386.897,446.063z"/>
<linearGradient id="SVGID_9_" gradientUnits="userSpaceOnUse" x1="44.4898" y1="376.8243" x2="44.4898" y2="28.8143" gradientTransform="matrix(1.0039 0 0 -1.0039 0.1922 516.5617)">
	<stop  offset="0" style="stop-color:#FFF465"/>
	<stop  offset="1" style="stop-color:#FFE600"/>
</linearGradient>
<path style="fill:url(#SVGID_9_);" d="M52.35,154.966c-0.274,0-0.552-0.016-0.831-0.046l-14.968-1.646
	c-4.134-0.455-7.117-4.173-6.662-8.306c0.455-4.133,4.176-7.113,8.306-6.662l14.968,1.646c4.134,0.455,7.117,4.173,6.662,8.306
	C59.401,152.113,56.139,154.966,52.35,154.966z"/>
<linearGradient id="SVGID_10_" gradientUnits="userSpaceOnUse" x1="244.542" y1="376.8134" x2="244.542" y2="29.5334" gradientTransform="matrix(1.0039 0 0 -1.0039 0.1922 516.5617)">
	<stop  offset="0" style="stop-color:#FFF465"/>
	<stop  offset="1" style="stop-color:#FFE600"/>
</linearGradient>
<path style="fill:url(#SVGID_10_);" d="M359.915,486.911c-0.316,0-0.638-0.021-0.96-0.061l-29.091-3.699
	c-4.124-0.524-7.044-4.294-6.519-8.42c0.525-4.124,4.294-7.027,8.42-6.519l29.091,3.699c4.124,0.524,7.045,4.294,6.519,8.42
	C366.89,484.133,363.65,486.911,359.915,486.911z M388.549,483.184c-2.824,0-5.533-1.597-6.816-4.323
	c-1.773-3.761-0.16-8.248,3.602-10.019c7.639-3.6,13.384-9.57,15.763-16.382c1.371-3.924,5.667-5.994,9.591-4.626
	c3.925,1.371,5.997,5.665,4.626,9.591c-3.757,10.758-12.124,19.651-23.562,25.039C390.716,482.952,389.625,483.184,388.549,483.184z
	 M301.734,479.513c-0.316,0-0.638-0.021-0.96-0.061l-29.091-3.699c-4.124-0.524-7.045-4.294-6.519-8.42
	c0.525-4.124,4.294-7.028,8.42-6.519l29.091,3.699c4.124,0.524,7.045,4.294,6.519,8.42
	C308.709,476.734,305.467,479.513,301.734,479.513z M243.553,472.114c-0.316,0-0.637-0.021-0.96-0.061l-29.091-3.699
	c-4.124-0.524-7.045-4.294-6.519-8.42c0.525-4.124,4.295-7.042,8.42-6.519l29.091,3.699c4.124,0.524,7.045,4.294,6.519,8.42
	C250.528,469.335,247.286,472.114,243.553,472.114z M185.37,464.715c-0.316,0-0.637-0.021-0.96-0.061l-29.092-3.7
	c-4.125-0.525-7.045-4.294-6.519-8.42c0.525-4.125,4.296-7.029,8.42-6.519l29.092,3.7c4.125,0.525,7.045,4.294,6.519,8.42
	C192.347,461.938,189.105,464.715,185.37,464.715z M127.189,457.316c-0.316,0-0.637-0.021-0.96-0.061l-29.092-3.7
	c-4.125-0.525-7.045-4.294-6.519-8.42c0.525-4.125,4.296-7.03,8.42-6.519l29.092,3.7c4.125,0.525,7.045,4.294,6.519,8.42
	C134.165,454.539,130.924,457.316,127.189,457.316z M409.896,433.341c-4.159,0-7.529-3.37-7.529-7.529v-29.325
	c0-4.159,3.37-7.529,7.529-7.529c4.159,0,7.529,3.37,7.529,7.529v29.325C417.426,429.971,414.056,433.341,409.896,433.341z
	 M409.896,374.692c-4.159,0-7.529-3.37-7.529-7.529v-29.325c0-4.159,3.37-7.529,7.529-7.529c4.159,0,7.529,3.37,7.529,7.529v29.325
	C417.426,371.321,414.056,374.692,409.896,374.692z M409.896,316.042c-4.159,0-7.529-3.37-7.529-7.529v-29.325
	c0-4.159,3.37-7.529,7.529-7.529c4.159,0,7.529,3.37,7.529,7.529v29.325C417.426,312.671,414.056,316.042,409.896,316.042z
	 M409.896,257.392c-4.159,0-7.529-3.37-7.529-7.529v-29.325c0-4.159,3.37-7.529,7.529-7.529c4.159,0,7.529,3.37,7.529,7.529v29.325
	C417.426,254.021,414.056,257.392,409.896,257.392z M399.366,201.747c-1.859,0-3.722-0.685-5.177-2.064
	c-5.581-5.288-13.326-8.657-21.811-9.488l-0.199-0.021c-4.135-0.445-7.126-4.158-6.68-8.292c0.445-4.135,4.157-7.127,8.292-6.68
	l0.128,0.014c11.727,1.149,22.629,5.959,30.628,13.536c3.019,2.86,3.147,7.626,0.287,10.645
	C403.352,200.958,401.361,201.747,399.366,201.747z M343.843,187.013c-0.274,0-0.552-0.016-0.831-0.046l-29.149-3.205
	c-4.133-0.455-7.117-4.173-6.662-8.306c0.455-4.133,4.176-7.108,8.306-6.662l29.149,3.205c4.133,0.455,7.117,4.173,6.662,8.306
	C350.895,184.159,347.632,187.013,343.843,187.013z M285.546,180.603c-0.274,0-0.552-0.016-0.831-0.046l-29.15-3.205
	c-4.133-0.455-7.117-4.173-6.662-8.306c0.454-4.134,4.181-7.112,8.306-6.662l29.15,3.205c4.133,0.455,7.117,4.173,6.662,8.306
	C292.597,177.75,289.335,180.603,285.546,180.603z M227.246,174.194c-0.274,0-0.552-0.016-0.831-0.046l-29.149-3.205
	c-4.133-0.455-7.117-4.173-6.662-8.306c0.454-4.133,4.173-7.111,8.306-6.662l29.149,3.205c4.133,0.455,7.117,4.173,6.662,8.306
	C234.298,171.34,231.036,174.194,227.246,174.194z M168.947,167.785c-0.274,0-0.552-0.016-0.831-0.046l-29.149-3.205
	c-4.134-0.455-7.117-4.173-6.662-8.306c0.454-4.132,4.169-7.109,8.306-6.662l29.149,3.205c4.133,0.455,7.117,4.173,6.662,8.306
	C176,164.931,172.737,167.785,168.947,167.785z M110.648,161.375c-0.274,0-0.552-0.016-0.831-0.046l-29.149-3.205
	c-4.133-0.455-7.117-4.173-6.662-8.306c0.455-4.132,4.171-7.108,8.306-6.662l29.149,3.205c4.134,0.455,7.117,4.173,6.662,8.306
	C117.7,158.521,114.437,161.375,110.648,161.375z"/>
<linearGradient id="SVGID_11_" gradientUnits="userSpaceOnUse" x1="61.0258" y1="376.8334" x2="61.0258" y2="28.8334" gradientTransform="matrix(1.0039 0 0 -1.0039 0.1922 516.5617)">
	<stop  offset="0" style="stop-color:#FFF465"/>
	<stop  offset="1" style="stop-color:#FFE600"/>
</linearGradient>
<path style="fill:url(#SVGID_11_);" d="M68.937,449.907c-0.316,0-0.636-0.02-0.959-0.061l-14.939-1.899
	c-4.125-0.524-7.046-4.294-6.52-8.419c0.524-4.125,4.294-7.043,8.419-6.52l14.939,1.899c4.125,0.524,7.046,4.294,6.52,8.419
	C75.913,447.129,72.671,449.907,68.937,449.907z"/>
<path style="fill:#61DB99;" d="M345.568,56.068L297.38,82.29c-6.277,3.415-14.134,1.096-17.55-5.181l0,0
	c-3.415-6.277-1.096-14.134,5.181-17.55L333.2,33.338c6.277-3.415,14.134-1.096,17.55,5.181l0,0
	C354.165,44.795,351.846,52.653,345.568,56.068z"/>
<linearGradient id="SVGID_12_" gradientUnits="userSpaceOnUse" x1="405.7483" y1="125.8429" x2="302.7083" y2="228.8829" gradientTransform="matrix(1.0039 0 0 -1.0039 0.1922 516.5617)">
	<stop  offset="0" style="stop-color:#BE3F45;stop-opacity:0"/>
	<stop  offset="1" style="stop-color:#BE3F45"/>
</linearGradient>
<path style="fill:url(#SVGID_12_);" d="M433.275,363.821L385.454,316c-6.747-7.347-16.429-11.955-27.19-11.955
	c-20.386,0-36.912,16.527-36.912,36.912c0,10.761,4.608,20.444,11.955,27.19l99.969,99.969V363.821z"/>
<linearGradient id="SVGID_13_" gradientUnits="userSpaceOnUse" x1="356.6688" y1="198.0034" x2="356.6688" y2="144.8334" gradientTransform="matrix(1.0039 0 0 -1.0039 0.1922 516.5617)">
	<stop  offset="0" style="stop-color:#FF4C54"/>
	<stop  offset="1" style="stop-color:#BE3F45"/>
</linearGradient>
<circle style="fill:url(#SVGID_13_);" cx="358.26" cy="340.952" r="36.912"/>
<linearGradient id="SVGID_14_" gradientUnits="userSpaceOnUse" x1="356.6688" y1="158.9934" x2="356.6688" y2="195.6834" gradientTransform="matrix(1.0039 0 0 -1.0039 0.1922 516.5617)">
	<stop  offset="0" style="stop-color:#FF4C54"/>
	<stop  offset="1" style="stop-color:#BE3F45"/>
</linearGradient>
<circle style="fill:url(#SVGID_14_);" cx="358.26" cy="340.952" r="25.474"/>
<linearGradient id="SVGID_15_" gradientUnits="userSpaceOnUse" x1="297.2642" y1="404.3336" x2="307.7642" y2="357.9635" gradientTransform="matrix(1.0039 0 0 -1.0039 0.1922 516.5617)">
	<stop  offset="0" style="stop-color:#A7F3CE"/>
	<stop  offset="1" style="stop-color:#61DB99"/>
</linearGradient>
<circle style="fill:url(#SVGID_15_);" cx="348.582" cy="331.275" r="5.271"/>
<linearGradient id="SVGID_16_" gradientUnits="userSpaceOnUse" x1="316.5446" y1="404.3314" x2="327.0446" y2="357.9614" gradientTransform="matrix(1.0039 0 0 -1.0039 0.1922 516.5617)">
	<stop  offset="0" style="stop-color:#A7F3CE"/>
	<stop  offset="1" style="stop-color:#61DB99"/>
</linearGradient>
<circle style="fill:url(#SVGID_16_);" cx="367.938" cy="331.275" r="5.271"/>
<linearGradient id="SVGID_17_" gradientUnits="userSpaceOnUse" x1="293.1092" y1="403.3927" x2="303.6092" y2="357.0227" gradientTransform="matrix(1.0039 0 0 -1.0039 0.1922 516.5617)">
	<stop  offset="0" style="stop-color:#A7F3CE"/>
	<stop  offset="1" style="stop-color:#61DB99"/>
</linearGradient>
<circle style="fill:url(#SVGID_17_);" cx="348.582" cy="350.64" r="5.271"/>
<linearGradient id="SVGID_18_" gradientUnits="userSpaceOnUse" x1="312.3897" y1="403.3905" x2="322.8897" y2="357.0205" gradientTransform="matrix(1.0039 0 0 -1.0039 0.1922 516.5617)">
	<stop  offset="0" style="stop-color:#A7F3CE"/>
	<stop  offset="1" style="stop-color:#61DB99"/>
</linearGradient>
<circle style="fill:url(#SVGID_18_);" cx="367.938" cy="350.64" r="5.271"/>
<g>
</g>
<g>
</g>
<g>
</g>
<g>
</g>
<g>
</g>
<g>
</g>
<g>
</g>
<g>
</g>
<g>
</g>
<g>
</g>
<g>
</g>
<g>
</g>
<g>
</g>
<g>
</g>
<g>
</g>
</svg>
